<?xml version="1.0" encoding="UTF-8"?>
<svg width="500" height="500" id="Layer_1" data-name="Layer 1" xmlns="http://www.w3.org/2000/svg" viewBox="0 0 500 500">
  <defs>
    <style>
      .cls-1 {
        fill: #0098c5;
      }

      .cls-2 {
        fill: #0b3351;
      }

      .cls-3 {
        fill: #28b9ec;
      }
    </style>
  </defs>
  <g>
    <g>
      <path class="cls-3" d="M416.6,244.69c-2.48,0-4.91-.22-7.26-.63.35,2.15.53,4.38.53,6.63,0,23.17-18.85,42.03-42.02,42.03s-42.03-18.86-42.03-42.03c0-2.28.19-4.53.54-6.72-2.52.47-5.11.72-7.75.72-23.17,0-42.03-18.86-42.03-42.03s18.86-42.02,42.03-42.02c2.69,0,5.33.25,7.88.73-.44-2.42-.67-4.91-.67-7.46,0-23.17,18.86-42.02,42.03-42.02s42.02,18.85,42.02,42.02c0,2.52-.22,4.98-.65,7.37,2.39-.43,4.86-.65,7.37-.65,3.62,0,7.15.46,10.5,1.33-6.99-30.55-21.6-58.2-41.72-80.84-4.2-4.73-8.64-9.23-13.28-13.5-32.75-30.05-76.41-48.38-124.36-48.38s-91.6,18.33-124.35,48.38c-4.65,4.26-9.08,8.77-13.28,13.5-20.26,22.82-34.94,50.72-41.87,81.56h31.47v-41.59h79.25v41.59h41.6v79.25h-41.6v41.6h-79.25v-41.6h-31.9c6.73,31.47,21.52,59.97,42.08,83.2,4.17,4.72,8.59,9.22,13.23,13.5,32.77,30.19,76.55,48.62,124.62,48.62s91.86-18.43,124.63-48.62c4.64-4.28,9.06-8.78,13.23-13.5,20.28-22.91,34.94-50.92,41.79-81.86-3.45.92-7.07,1.42-10.79,1.42Z"/>
      <path class="cls-2" d="M427.38,243.27c-6.86,30.94-21.52,58.96-41.79,81.86-4.17,4.72-8.59,9.22-13.23,13.5-32.77,30.19-76.55,48.62-124.63,48.62s-91.84-18.43-124.62-48.62c-4.64-4.28-9.06-8.78-13.23-13.5-20.57-23.24-35.35-51.73-42.08-83.2h-9.7v-79.25h10.13c6.93-30.84,21.6-58.74,41.87-81.56,4.2-4.73,8.63-9.23,13.28-13.5,32.75-30.05,76.41-48.38,124.35-48.38s91.62,18.33,124.36,48.38c4.64,4.26,9.08,8.77,13.28,13.5,20.11,22.64,34.72,50.29,41.72,80.84,6,1.54,11.46,4.39,16.11,8.18-2.53-15.1-6.83-29.83-12.84-44.04-6.84-16.19-15.72-31.24-26.5-44.98-3.64-4.65-7.51-9.16-11.6-13.5-1.43-1.53-2.88-3.04-4.38-4.53-18.2-18.2-39.39-32.48-62.99-42.48-24.45-10.33-50.41-15.58-77.17-15.58s-52.7,5.25-77.15,15.58c-23.6,9.99-44.8,24.27-63,42.48-1.49,1.49-2.95,3-4.39,4.53-4.07,4.34-7.94,8.84-11.59,13.5-10.78,13.74-19.64,28.79-26.49,44.98-10.35,24.44-15.58,50.41-15.58,77.15s5.24,52.72,15.58,77.16c6.81,16.09,15.61,31.07,26.28,44.73,3.64,4.65,7.49,9.15,11.55,13.5,1.52,1.62,3.06,3.21,4.63,4.78,18.2,18.19,39.4,32.48,63,42.48,24.45,10.33,50.41,15.57,77.15,15.57s52.72-5.24,77.17-15.57c23.6-9.99,44.79-24.29,62.99-42.48,1.57-1.57,3.11-3.16,4.63-4.78,4.06-4.35,7.91-8.84,11.54-13.5,10.69-13.66,19.5-28.64,26.31-44.73,6.2-14.65,10.56-29.85,13.07-45.43-4.63,3.85-10.07,6.72-16.05,8.3Z"/>
    </g>
    <g>
      <path class="cls-1" d="M454.1,81.13H46.75c-13.69,0-24.78,11.09-24.78,24.78v194.45c0,13.69,11.09,24.78,24.78,24.78h407.35c13.69,0,24.78-11.09,24.78-24.78V105.9c0-13.69-11.09-24.78-24.78-24.78ZM220.55,241.93h-41.6v41.6h-79.25v-41.6h-41.6v-79.25h41.6v-41.59h79.25v41.59h41.6v79.25ZM443.44,234.97c-4.63,3.85-10.07,6.72-16.05,8.3-3.45.92-7.07,1.42-10.79,1.42-2.48,0-4.91-.22-7.26-.63.35,2.15.53,4.38.53,6.63,0,23.17-18.85,42.03-42.02,42.03s-42.03-18.86-42.03-42.03c0-2.28.19-4.53.54-6.72-2.52.47-5.11.72-7.75.72-23.17,0-42.03-18.86-42.03-42.03s18.86-42.02,42.03-42.02c2.69,0,5.33.25,7.88.73-.44-2.42-.67-4.91-.67-7.46,0-23.17,18.86-42.02,42.03-42.02s42.02,18.85,42.02,42.02c0,2.52-.22,4.98-.65,7.37,2.39-.43,4.86-.65,7.37-.65,3.62,0,7.15.46,10.5,1.33,6,1.54,11.46,4.39,16.11,8.18,9.4,7.73,15.41,19.43,15.41,32.51s-5.92,24.6-15.18,32.32Z"/>
      <path class="cls-2" d="M454.1,67.63H46.75c-21.11,0-38.28,17.16-38.28,38.28v194.45c0,21.1,17.16,38.28,38.28,38.28h407.35c21.11,0,38.28-17.18,38.28-38.28V105.9c0-21.11-17.16-38.28-38.28-38.28ZM478.88,300.36c0,13.69-11.09,24.78-24.78,24.78H46.75c-13.69,0-24.78-11.09-24.78-24.78V105.9c0-13.69,11.09-24.78,24.78-24.78h407.35c13.69,0,24.78,11.09,24.78,24.78v194.45Z"/>
    </g>
    <path class="cls-2" d="M178.95,162.69v-41.59h-79.25v41.59h-41.6v79.25h41.6v41.6h79.25v-41.6h41.6v-79.25h-41.6ZM207.05,228.45h-41.59v41.59h-52.28v-41.59h-41.59v-52.27h41.59v-41.6h52.28v41.6h41.59v52.27Z"/>
    <path class="cls-2" d="M443.21,170.15c-4.65-3.79-10.12-6.64-16.11-8.18-3.35-.87-6.88-1.33-10.5-1.33-2.52,0-4.98.22-7.37.65.43-2.39.65-4.86.65-7.37,0-23.17-18.85-42.02-42.02-42.02s-42.03,18.85-42.03,42.02c0,2.56.23,5.05.67,7.46-2.56-.48-5.19-.73-7.88-.73-23.17,0-42.03,18.85-42.03,42.02s18.86,42.03,42.03,42.03c2.64,0,5.24-.25,7.75-.72-.35,2.19-.54,4.44-.54,6.72,0,23.17,18.86,42.03,42.03,42.03s42.02-18.86,42.02-42.03c0-2.25-.18-4.48-.53-6.63,2.35.42,4.78.63,7.26.63,3.72,0,7.34-.49,10.79-1.42,5.98-1.58,11.42-4.45,16.05-8.3,9.26-7.72,15.18-19.34,15.18-32.32s-6.01-24.78-15.41-32.51ZM367.85,125.38c15.76,0,28.52,12.78,28.52,28.52,0,5.21-1.39,10.11-3.85,14.32-2.49,4.3-6.08,7.91-10.4,10.4-4.2,2.44-9.07,3.83-14.28,3.83-5.58,0-10.79-1.61-15.19-4.38-3.69-2.33-6.83-5.5-9.13-9.23-2.67-4.34-4.21-9.46-4.21-14.94,0-15.75,12.78-28.52,28.54-28.52ZM332.92,227.35c-4.21,2.44-9.11,3.85-14.32,3.85-15.76,0-28.54-12.78-28.54-28.54s12.78-28.54,28.54-28.54c5.58,0,10.79,1.61,15.18,4.39,3.71,2.33,6.83,5.48,9.12,9.21,2.68,4.34,4.22,9.46,4.22,14.94,0,4.97-1.28,9.65-3.5,13.72-2.5,4.55-6.22,8.35-10.7,10.97ZM367.85,279.22c-15.76,0-28.54-12.78-28.54-28.54,0-4.96,1.28-9.64,3.5-13.7,2.5-4.57,6.21-8.36,10.7-10.97,4.2-2.45,9.11-3.86,14.33-3.86,4.9,0,9.5,1.23,13.52,3.4,5.03,2.71,9.16,6.89,11.79,11.97,2.06,3.95,3.21,8.41,3.21,13.15,0,15.76-12.76,28.54-28.52,28.54ZM430.13,227.78c-4.02,2.18-8.64,3.42-13.53,3.42s-9.5-1.23-13.52-3.4c-5.03-2.71-9.17-6.89-11.81-11.98-2.05-3.93-3.21-8.41-3.21-13.15,0-5.21,1.4-10.09,3.83-14.29,2.5-4.31,6.1-7.91,10.41-10.4,4.2-2.44,9.08-3.85,14.31-3.85,4.83,0,9.39,1.2,13.36,3.33,9.03,4.79,15.17,14.28,15.17,25.21s-6.06,20.3-14.99,25.12Z"/>
  </g>
  <g>
    <polygon points="473 427.78 473 433.49 478.88 433.49 478.88 439.37 467.11 439.37 467.11 433.66 449.98 433.66 449.98 445.08 473 445.08 473 450.79 478.88 450.79 478.88 462.56 473 462.56 473 468.27 444.1 468.27 444.1 462.56 438.39 462.56 438.39 456.67 449.98 456.67 449.98 462.38 467.11 462.38 467.11 450.96 444.1 450.96 444.1 445.25 438.39 445.25 438.39 433.49 444.1 433.49 444.1 427.78 473 427.78"/>
    <g>
      <path d="M333.44,427.78v5.71h5.88v29.07h-5.88v5.71h-28.9v-5.71h-5.71v-29.07h5.71v-5.71h28.9ZM327.55,433.66h-17.13v28.72h17.13v-28.72Z"/>
      <path d="M241.21,439.37v-5.88h-5.71v-5.71h-17.48v5.71h-5.71v5.88h-5.88v28.9h11.77v-11.59h17.13v11.59h11.59v-28.9h-5.71ZM235.33,450.79h-17.13v-11.42h5.71v-5.71h5.71v5.71h5.71v11.42Z"/>
      <g>
        <polygon points="125.79 427.78 125.79 462.38 143.1 462.38 143.1 427.78 154.69 427.78 154.69 462.56 148.98 462.56 148.98 468.27 119.91 468.27 119.91 462.56 114.2 462.56 114.2 427.78 125.79 427.78"/>
        <g>
          <polygon points="79.77 427.78 79.77 433.49 85.48 433.49 85.48 439.37 91.19 439.37 91.19 433.49 96.9 433.49 96.9 427.78 108.49 427.78 108.49 468.27 96.9 468.27 96.9 445.25 91.19 445.25 91.19 456.67 85.3 456.67 85.3 445.25 79.77 445.25 79.77 468.27 68 468.27 68 427.78 79.77 427.78"/>
          <polygon points="62.46 427.78 62.46 433.66 33.57 433.66 33.57 445.08 56.58 445.08 56.58 450.96 33.57 450.96 33.57 462.38 62.46 462.38 62.46 468.27 21.97 468.27 21.97 427.78 62.46 427.78"/>
        </g>
      </g>
      <polygon points="431.55 427.78 431.55 462.56 425.84 462.56 425.84 468.27 396.77 468.27 396.77 462.56 391.06 462.56 391.06 456.67 402.65 456.67 402.65 462.38 419.95 462.38 419.95 427.78 431.55 427.78"/>
      <polygon points="177.71 427.78 177.71 462.38 200.89 462.38 200.89 468.27 166.11 468.27 166.11 427.78 177.71 427.78"/>
      <polygon points="293.12 427.78 293.12 433.66 281.53 433.66 281.53 468.27 269.93 468.27 269.93 433.66 258.34 433.66 258.34 427.78 293.12 427.78"/>
      <path d="M385.35,450.96v-17.47h-5.71v-5.71h-34.78v40.49h11.77v-11.59h5.54v5.88h5.88v5.71h17.3v-5.88h-5.71v-5.71h-5.71v-5.71h11.42ZM373.75,445.08h-5.71v5.71h-11.42v-17.13h17.13v11.42Z"/>
    </g>
  </g>
</svg>
