<?xml version="1.0" encoding="UTF-8"?>
<svg width="500" height="500" id="Layer_1" data-name="Layer 1" xmlns="http://www.w3.org/2000/svg" viewBox="0 0 500 500">
  <defs>
    <style>
      .cls-1 {
        fill: #0098c5;
      }

      .cls-2 {
        fill: #0b3351;
      }

      .cls-3 {
        fill: #28b9ec;
      }
    </style>
  </defs>
  <g>
    <g>
      <path class="cls-3" d="M386.15,244.79c-2.02,0-4.01-.18-5.93-.52.29,1.76.43,3.57.43,5.41,0,18.93-15.39,34.33-34.32,34.33s-34.33-15.4-34.33-34.33c0-1.86.15-3.7.44-5.49-2.06.38-4.17.59-6.33.59-18.93,0-34.33-15.4-34.33-34.33s15.4-34.32,34.33-34.32c2.2,0,4.35.21,6.44.6-.36-1.97-.55-4.01-.55-6.1,0-18.93,15.4-34.32,34.33-34.32s34.32,15.39,34.32,34.32c0,2.06-.18,4.07-.53,6.02,1.95-.35,3.97-.53,6.02-.53,2.95,0,5.84.37,8.57,1.08-5.71-24.95-17.65-47.53-34.07-66.03-3.43-3.86-7.06-7.54-10.85-11.02-26.75-24.55-62.41-39.52-101.58-39.52s-74.82,14.97-101.57,39.52c-3.8,3.48-7.42,7.16-10.85,11.02-16.55,18.64-28.53,41.43-34.2,66.62h25.7v-33.97h64.73v33.97h33.98v64.73h-33.98v33.98h-64.73v-33.98h-26.06c5.5,25.7,17.57,48.98,34.37,67.96,3.41,3.85,7.01,7.53,10.81,11.02,26.77,24.66,62.52,39.71,101.78,39.71s75.03-15.05,101.79-39.71c3.79-3.49,7.4-7.17,10.81-11.02,16.56-18.71,28.53-41.59,34.13-66.86-2.82.75-5.78,1.16-8.81,1.16Z"/>
      <path class="cls-2" d="M394.96,243.63c-5.6,25.27-17.57,48.15-34.13,66.86-3.41,3.85-7.01,7.53-10.81,11.02-26.77,24.66-62.52,39.71-101.79,39.71s-75.02-15.05-101.78-39.71c-3.79-3.49-7.4-7.17-10.81-11.02-16.8-18.98-28.88-42.25-34.37-67.96h-7.92v-64.73h8.28c5.66-25.19,17.65-47.98,34.2-66.62,3.43-3.86,7.05-7.54,10.85-11.02,26.75-24.55,62.41-39.52,101.57-39.52s74.83,14.97,101.58,39.52c3.79,3.48,7.42,7.16,10.85,11.02,16.43,18.49,28.36,41.08,34.07,66.03,4.9,1.26,9.36,3.58,13.16,6.68-2.07-12.34-5.58-24.36-10.49-35.97-5.59-13.22-12.84-25.52-21.64-36.74-2.98-3.8-6.14-7.48-9.47-11.02-1.17-1.25-2.36-2.48-3.57-3.7-14.87-14.87-32.17-26.53-51.45-34.69-19.97-8.44-41.17-12.73-63.03-12.73s-43.04,4.29-63.01,12.73c-19.28,8.16-36.59,19.83-51.46,34.69-1.22,1.22-2.41,2.45-3.58,3.7-3.33,3.54-6.49,7.22-9.46,11.02-8.8,11.22-16.04,23.51-21.63,36.74-8.45,19.96-12.73,41.17-12.73,63.01s4.28,43.06,12.73,63.02c5.56,13.14,12.75,25.37,21.47,36.53,2.98,3.8,6.12,7.47,9.43,11.02,1.24,1.32,2.5,2.62,3.78,3.91,14.87,14.86,32.18,26.53,51.46,34.69,19.97,8.44,41.17,12.72,63.01,12.72s43.06-4.28,63.03-12.72c19.28-8.16,36.58-19.84,51.45-34.69,1.28-1.28,2.54-2.58,3.78-3.91,3.32-3.55,6.46-7.22,9.42-11.02,8.73-11.16,15.93-23.39,21.49-36.53,5.06-11.96,8.63-24.38,10.67-37.11-3.78,3.14-8.22,5.49-13.11,6.78Z"/>
    </g>
    <g>
      <path class="cls-1" d="M416.78,111.2H84.07c-11.18,0-20.24,9.06-20.24,20.24v158.82c0,11.18,9.06,20.24,20.24,20.24h332.71c11.18,0,20.24-9.06,20.24-20.24v-158.82c0-11.18-9.06-20.24-20.24-20.24ZM226.02,242.54h-33.98v33.98h-64.73v-33.98h-33.98v-64.73h33.98v-33.97h64.73v33.97h33.98v64.73ZM408.07,236.85c-3.78,3.14-8.22,5.49-13.11,6.78-2.82.75-5.78,1.16-8.81,1.16-2.02,0-4.01-.18-5.93-.52.29,1.76.43,3.57.43,5.41,0,18.93-15.39,34.33-34.32,34.33s-34.33-15.4-34.33-34.33c0-1.86.15-3.7.44-5.49-2.06.38-4.17.59-6.33.59-18.93,0-34.33-15.4-34.33-34.33s15.4-34.32,34.33-34.32c2.2,0,4.35.21,6.44.6-.36-1.97-.55-4.01-.55-6.1,0-18.93,15.4-34.32,34.33-34.32s34.32,15.39,34.32,34.32c0,2.06-.18,4.07-.53,6.02,1.95-.35,3.97-.53,6.02-.53,2.95,0,5.84.37,8.57,1.08,4.9,1.26,9.36,3.58,13.16,6.68,7.68,6.31,12.58,15.87,12.58,26.55s-4.84,20.09-12.4,26.4Z"/>
      <path class="cls-2" d="M416.78,100.17H84.07c-17.24,0-31.26,14.02-31.26,31.26v158.82c0,17.23,14.02,31.26,31.26,31.26h332.71c17.24,0,31.26-14.03,31.26-31.26v-158.82c0-17.24-14.02-31.26-31.26-31.26ZM437.02,290.26c0,11.18-9.06,20.24-20.24,20.24H84.07c-11.18,0-20.24-9.06-20.24-20.24v-158.82c0-11.18,9.06-20.24,20.24-20.24h332.71c11.18,0,20.24,9.06,20.24,20.24v158.82Z"/>
    </g>
    <path class="cls-2" d="M192.04,177.81v-33.97h-64.73v33.97h-33.98v64.73h33.98v33.98h64.73v-33.98h33.98v-64.73h-33.98ZM215,231.52h-33.97v33.97h-42.7v-33.97h-33.97v-42.69h33.97v-33.98h42.7v33.98h33.97v42.69Z"/>
    <path class="cls-2" d="M407.88,183.91c-3.8-3.1-8.26-5.42-13.16-6.68-2.74-.71-5.62-1.08-8.57-1.08-2.06,0-4.07.18-6.02.53.35-1.95.53-3.97.53-6.02,0-18.93-15.39-34.32-34.32-34.32s-34.33,15.39-34.33,34.32c0,2.09.19,4.12.55,6.1-2.09-.39-4.24-.6-6.44-.6-18.93,0-34.33,15.39-34.33,34.32s15.4,34.33,34.33,34.33c2.16,0,4.28-.21,6.33-.59-.29,1.79-.44,3.63-.44,5.49,0,18.93,15.4,34.33,34.33,34.33s34.32-15.4,34.32-34.33c0-1.84-.14-3.66-.43-5.41,1.92.34,3.91.52,5.93.52,3.04,0,5.99-.4,8.81-1.16,4.89-1.29,9.33-3.64,13.11-6.78,7.56-6.3,12.4-15.8,12.4-26.4s-4.91-20.24-12.58-26.55ZM346.33,147.34c12.87,0,23.3,10.43,23.3,23.3,0,4.26-1.14,8.25-3.14,11.69-2.04,3.51-4.97,6.46-8.49,8.49-3.43,1.99-7.41,3.13-11.66,3.13-4.56,0-8.81-1.31-12.41-3.57-3.02-1.9-5.58-4.49-7.46-7.54-2.18-3.54-3.44-7.73-3.44-12.2,0-12.86,10.43-23.3,23.31-23.3ZM317.81,230.62c-3.44,1.99-7.44,3.14-11.69,3.14-12.87,0-23.31-10.43-23.31-23.31s10.43-23.31,23.31-23.31c4.56,0,8.81,1.31,12.4,3.58,3.03,1.9,5.58,4.47,7.45,7.52,2.19,3.54,3.45,7.73,3.45,12.2,0,4.06-1.04,7.88-2.86,11.21-2.05,3.72-5.08,6.82-8.74,8.96ZM346.33,272.99c-12.87,0-23.31-10.43-23.31-23.31,0-4.05,1.04-7.87,2.86-11.19,2.05-3.73,5.07-6.83,8.74-8.96,3.43-2,7.44-3.15,11.71-3.15,4,0,7.76,1,11.04,2.78,4.11,2.21,7.48,5.63,9.63,9.77,1.68,3.22,2.62,6.87,2.62,10.74,0,12.87-10.42,23.31-23.3,23.31ZM397.2,230.98c-3.29,1.78-7.06,2.79-11.05,2.79s-7.76-1-11.04-2.78c-4.11-2.21-7.49-5.63-9.65-9.78-1.67-3.21-2.62-6.87-2.62-10.74,0-4.26,1.15-8.24,3.13-11.67,2.05-3.52,4.98-6.46,8.5-8.49,3.43-1.99,7.42-3.14,11.68-3.14,3.95,0,7.67.98,10.91,2.72,7.38,3.92,12.39,11.66,12.39,20.59s-4.95,16.58-12.24,20.52Z"/>
  </g>
  <g>
    <polygon points="490.72 394.69 490.72 400.86 497.08 400.86 497.08 407.21 484.37 407.21 484.37 401.04 465.88 401.04 465.88 413.37 490.72 413.37 490.72 419.54 497.08 419.54 497.08 432.24 490.72 432.24 490.72 438.41 459.53 438.41 459.53 432.24 453.36 432.24 453.36 425.89 465.88 425.89 465.88 432.06 484.37 432.06 484.37 419.73 459.53 419.73 459.53 413.56 453.36 413.56 453.36 400.86 459.53 400.86 459.53 394.69 490.72 394.69"/>
    <g>
      <path d="M340.05,394.69v6.16h6.35v31.39h-6.35v6.16h-31.2v-6.16h-6.16v-31.39h6.16v-6.16h31.2ZM333.7,401.04h-18.49v31.01h18.49v-31.01Z"/>
      <path d="M240.47,407.21v-6.35h-6.16v-6.17h-18.87v6.17h-6.17v6.35h-6.35v31.2h12.7v-12.52h18.49v12.52h12.52v-31.2h-6.17ZM234.12,419.54h-18.49v-12.33h6.16v-6.17h6.17v6.17h6.17v12.33Z"/>
      <g>
        <polygon points="115.87 394.69 115.87 432.06 134.55 432.06 134.55 394.69 147.07 394.69 147.07 432.24 140.9 432.24 140.9 438.41 109.52 438.41 109.52 432.24 103.35 432.24 103.35 394.69 115.87 394.69"/>
        <g>
          <polygon points="66.17 394.69 66.17 400.86 72.34 400.86 72.34 407.21 78.5 407.21 78.5 400.86 84.67 400.86 84.67 394.69 97.19 394.69 97.19 438.41 84.67 438.41 84.67 413.56 78.5 413.56 78.5 425.89 72.15 425.89 72.15 413.56 66.17 413.56 66.17 438.41 53.47 438.41 53.47 394.69 66.17 394.69"/>
          <polygon points="47.49 394.69 47.49 401.04 16.29 401.04 16.29 413.37 41.14 413.37 41.14 419.73 16.29 419.73 16.29 432.06 47.49 432.06 47.49 438.41 3.78 438.41 3.78 394.69 47.49 394.69"/>
        </g>
      </g>
      <polygon points="445.97 394.69 445.97 432.24 439.81 432.24 439.81 438.41 408.42 438.41 408.42 432.24 402.26 432.24 402.26 425.89 414.78 425.89 414.78 432.06 433.46 432.06 433.46 394.69 445.97 394.69"/>
      <polygon points="171.91 394.69 171.91 432.06 196.95 432.06 196.95 438.41 159.4 438.41 159.4 394.69 171.91 394.69"/>
      <polygon points="296.52 394.69 296.52 401.04 284 401.04 284 438.41 271.49 438.41 271.49 401.04 258.97 401.04 258.97 394.69 296.52 394.69"/>
      <path d="M396.09,419.72v-18.87h-6.17v-6.17h-37.55v43.71h12.7v-12.52h5.98v6.35h6.35v6.17h18.68v-6.35h-6.17v-6.17h-6.16v-6.17h12.33ZM383.58,413.38h-6.17v6.16h-12.33v-18.49h18.49v12.33Z"/>
    </g>
  </g>
</svg>
